<svg xmlns="http://www.w3.org/2000/svg" viewBox="0 0 182.54 118.39"><defs><style>.cls-1{fill:#6263a2;}.cls-2{isolation:isolate;}.cls-3{fill:#fff;stroke:#fff;stroke-miterlimit:10;}</style></defs><g id="레이어_2" data-name="레이어 2"><g id="레이어_1-2" data-name="레이어 1"><g id="그룹_10" data-name="그룹 10"><g id="그룹_4" data-name="그룹 4"><path id="패스_9" data-name="패스 9" class="cls-1" d="M39,22.37,58.5,56.07H19.44ZM39,0,0,67.21H78Z"/><path id="패스_10" data-name="패스 10" class="cls-1" d="M62.61,22.37l19.53,33.7H43.08ZM62.61,0l-39,67.21h78.05Z"/></g><g id="AI_PORTAL" data-name="AI PORTAL" class="cls-2"><g class="cls-2"><path class="cls-3" d="M10.8,90.35h3.26l10,27.26H20l-7.56-22-7.55,22H.75ZM5.38,108H19.73v3.64H5.38Z"/><path class="cls-3" d="M32.07,117.61H28.24V90.35h3.83Z"/><path class="cls-3" d="M49.13,90.35H53v27.26H49.13Zm2,13.05h8.72a4.09,4.09,0,0,0,2.17-.58,3.91,3.91,0,0,0,1.46-1.65A5.66,5.66,0,0,0,64,98.71a5.72,5.72,0,0,0-.51-2.48A3.87,3.87,0,0,0,59.82,94H51.1V90.35h8.59a8.57,8.57,0,0,1,4.29,1,7.19,7.19,0,0,1,2.88,2.93,9.94,9.94,0,0,1,0,8.77A7.08,7.08,0,0,1,64,106a8.68,8.68,0,0,1-4.29,1H51.1Z"/><path class="cls-3" d="M76.66,116.65a8.5,8.5,0,0,1-3.37-3.53,11.29,11.29,0,0,1-1.19-5.28v-7.72a11.29,11.29,0,0,1,1.19-5.28,8.5,8.5,0,0,1,3.37-3.53,10.8,10.8,0,0,1,10,0,8.48,8.48,0,0,1,3.36,3.53,11.17,11.17,0,0,1,1.2,5.28v7.72a11.17,11.17,0,0,1-1.2,5.28,8.48,8.48,0,0,1-3.36,3.53,10.8,10.8,0,0,1-10,0Zm8-3.29a5.05,5.05,0,0,0,2-2.15,7.09,7.09,0,0,0,.71-3.24v-8a7.08,7.08,0,0,0-.71-3.23,5.14,5.14,0,0,0-2-2.16,6.18,6.18,0,0,0-5.94,0,5.14,5.14,0,0,0-2,2.16A7.08,7.08,0,0,0,76,100v8a7.09,7.09,0,0,0,.7,3.24,5.05,5.05,0,0,0,2,2.15,6.18,6.18,0,0,0,5.94,0Z"/><path class="cls-3" d="M97.08,90.33h3.82v27.28H97.08Zm1.67,12.11h9.3a3.58,3.58,0,0,0,1.93-.52,3.44,3.44,0,0,0,1.3-1.49,5.61,5.61,0,0,0,0-4.45A3.49,3.49,0,0,0,110,94.49a3.56,3.56,0,0,0-1.94-.52h-9.3V90.33h9.15a8.54,8.54,0,0,1,4.15,1,6.93,6.93,0,0,1,2.78,2.77,8.49,8.49,0,0,1,1,4.13,8.4,8.4,0,0,1-1,4.14A6.93,6.93,0,0,1,112,105.1a8.49,8.49,0,0,1-4.13,1H98.75Zm7.42,2.8,3.81-.87,7,13.24h-4.53Z"/><path class="cls-3" d="M118.36,90.35H137.6V94H118.36Zm7.71,2.23h3.82v25h-3.82Z"/><path class="cls-3" d="M147.09,90.35h3.26l10.05,27.26h-4.12l-7.56-22-7.56,22H137ZM141.67,108H156v3.64H141.67Z"/><path class="cls-3" d="M164.53,90.35h3.82v27.26h-3.82ZM166.44,114H182v3.64h-15.6Z"/></g></g></g></g></g></svg>