<svg xmlns="http://www.w3.org/2000/svg" viewBox="0 0 182.54 118.39"><defs><style>.cls-1{fill:#6263a2}</style></defs><g id="레이어_2" data-name="레이어 2"><g id="레이어_1-2" data-name="레이어 1"><g id="그룹_10" data-name="그룹 10"><g id="그룹_4" data-name="그룹 4"><path id="패스_9" data-name="패스 9" class="cls-1" d="M39 22.37l19.5 33.7H19.44zM39 0L0 67.21h78z"/><path id="패스_10" data-name="패스 10" class="cls-1" d="M62.61 22.37l19.53 33.7H43.08zm0-22.37l-39 67.21h78.05z"/></g><path d="M10.8 90.35h3.26l10 27.26H20l-7.56-22-7.55 22H.75zM5.38 108h14.35v3.64H5.38zm26.69 9.61h-3.83V90.35h3.83zm17.06-27.26H53v27.26h-3.87zm2 13.05h8.72a4.09 4.09 0 002.17-.58 3.91 3.91 0 001.46-1.65 5.66 5.66 0 00.52-2.46 5.72 5.72 0 00-.51-2.48A3.87 3.87 0 0059.82 94H51.1v-3.65h8.59a8.57 8.57 0 014.29 1 7.19 7.19 0 012.88 2.93 9.94 9.94 0 010 8.77A7.08 7.08 0 0164 106a8.68 8.68 0 01-4.29 1H51.1zm25.53 13.25a8.5 8.5 0 01-3.37-3.53 11.29 11.29 0 01-1.19-5.28v-7.72a11.29 11.29 0 011.19-5.28 8.5 8.5 0 013.37-3.53 10.8 10.8 0 0110 0 8.48 8.48 0 013.36 3.53 11.17 11.17 0 011.2 5.28v7.72a11.17 11.17 0 01-1.2 5.28 8.48 8.48 0 01-3.36 3.53 10.8 10.8 0 01-10 0zm8-3.29a5.05 5.05 0 002-2.15 7.09 7.09 0 00.71-3.24v-8a7.08 7.08 0 00-.71-3.23 5.14 5.14 0 00-2-2.16 6.18 6.18 0 00-5.94 0 5.14 5.14 0 00-2 2.16A7.08 7.08 0 0076 100v8a7.09 7.09 0 00.7 3.24 5.05 5.05 0 002 2.15 6.18 6.18 0 005.94 0zm12.42-23.03h3.82v27.28h-3.82zm1.67 12.11h9.3a3.58 3.58 0 001.93-.52 3.44 3.44 0 001.3-1.49 5.61 5.61 0 000-4.45 3.49 3.49 0 00-1.28-1.49 3.56 3.56 0 00-1.94-.52h-9.3v-3.64h9.15a8.54 8.54 0 014.15 1 6.93 6.93 0 012.78 2.77 8.49 8.49 0 011 4.13 8.4 8.4 0 01-1 4.14 6.93 6.93 0 01-2.84 2.73 8.49 8.49 0 01-4.13 1h-9.12zm7.42 2.8l3.81-.87 7 13.24h-4.53zm12.19-14.89h19.24V94h-19.24zm7.71 2.23h3.82v25h-3.82zm21.02-2.23h3.26l10.05 27.26h-4.12l-7.56-22-7.56 22H137zM141.67 108H156v3.64h-14.33zm22.86-17.65h3.82v27.26h-3.82zm1.91 23.65H182v3.64h-15.6z" fill="#fff" stroke="#fff" stroke-miterlimit="10" id="AI_PORTAL" data-name="AI PORTAL"/></g></g></g></svg>